<?xml version="1.0" encoding="UTF-8"?>
<svg id="Layer_1" xmlns="http://www.w3.org/2000/svg" version="1.1" viewBox="0 0 640 640">
  <!-- Generator: Adobe Illustrator 29.8.4, SVG Export Plug-In . SVG Version: 2.1.1 Build 6)  -->
  <defs>
    <style>
      .st0 {
        fill: #597aa6;
        isolation: isolate;
        opacity: .4;
        stroke: #102f5f;
        stroke-miterlimit: 10;
      }

      .st1 {
        fill: #3f67ab;
      }
    </style>
  </defs>
  <path class="st0" d="M96,352c0,50.3,16.6,96.8,44.6,134.2l-35.2,35.2c-12.5,12.5-12.5,32.8,0,45.3s32.8,12.5,45.3,0l35.2-35.2c37.4,28,83.8,44.6,134.1,44.6s96.8-16.6,134.2-44.6l35.2,35.2c12.5,12.5,32.8,12.5,45.3,0s12.5-32.8,0-45.3l-35.2-35.2c28-37.4,44.6-83.8,44.6-134.2,0-123.7-100.3-224-224-224s-224.1,100.3-224.1,224ZM296,248c0-13.3,10.7-24,24-24s24,10.7,24,24v94.1l49,49c9.4,9.4,9.4,24.6,0,33.9s-24.6,9.4-33.9,0l-56-56c-4.5-4.5-7-10.6-7-17v-104h-.1Z"/>
  <path class="st1" d="M543.5,196.9c6.5,9.4,20.5,10.1,24.9-.4,4.9-11.5,7.6-24.1,7.6-37.3,0-52.6-42.6-95.2-95.2-95.2-19.3,0-37.3,5.8-52.3,15.7-9.6,6.3-6.3,19.9,4.1,24.6,44.8,20.4,83.1,52.6,111,92.6h-.1ZM71.6,196.5c4.5,10.5,18.4,9.8,24.9.4,27.8-40,66.1-72.2,111-92.6,10.4-4.7,13.7-18.3,4.1-24.6-15-9.9-33-15.7-52.3-15.7-52.6,0-95.2,42.6-95.2,95.2,0,13.2,2.7,25.8,7.6,37.3h-.1ZM344,248c0-13.3-10.7-24-24-24s-24,10.7-24,24v104c0,6.4,2.5,12.5,7,17l56,56c9.4,9.4,24.6,9.4,33.9,0,9.3-9.4,9.4-24.6,0-33.9l-49-49v-94.1h.1Z"/>
</svg>